<?xml version="1.0" encoding="UTF-8"?>
<svg width="62px" height="62px" viewBox="0 0 62 62" version="1.1" xmlns="http://www.w3.org/2000/svg" xmlns:xlink="http://www.w3.org/1999/xlink">
    <!-- Generator: Sketch 44 (41411) - http://www.bohemiancoding.com/sketch -->
    <title>1496843772__d</title>
    <desc>Created with Sketch.</desc>
    <defs></defs>
    <g id="Page-1" stroke="none" stroke-width="1" fill="none" fill-rule="evenodd">
        <g id="Desktop" transform="translate(-362.000000, -178.000000)" fill-rule="nonzero">
            <g id="1496843772__d" transform="translate(362.000000, 178.000000)">
                <path d="M38.066,26.729 C32.616,26.729 28.4,31.163 28.4,36.397 C28.4,41.846 32.616,45.994 38.505,45.994 C43.445,45.994 47.589,41.921 47.589,36.542 C47.59,30.943 43.446,26.729 38.066,26.729 Z" id="Shape" fill="#6EAABB"></path>
                <path d="M45.168,42.811 C48.661,39.318 48.711,33.507 44.907,29.704 C40.949,25.746 35.039,25.696 31.235,29.501" id="Shape" fill="#60919F"></path>
                <path d="M48,51.806 C44,55.151 40.852,56.385 36.203,56.385 C31.474,56.385 27.285,54.858 23.869,51.806 C19.361,47.808 16.974,42.575 16.974,36.468 C16.974,30.873 19.125,25.854 23.198,21.93 C26.829,18.368 31.17,16.55 36.116,16.55 C40.84,16.55 44.999,18.15 46.999,21.494 L46.999,5.528 C42,2.56 36.868,0.834 30.923,0.834 C14.261,0.834 0.795,14.338 0.795,31 C0.795,47.661 14.318,61.083 30.98,61.083 C37.126,61.083 42.861,59 47.628,56 L48,56 L48,51.806 Z" id="Shape" fill="#9FD0C4"></path>
                <path d="M0.834,31 C0.834,47.661 14.338,61.083 31,61.083 C37.146,61.083 42.861,59 47.629,56 L48,56 L48,51.806 C44,55.151 40.852,56.385 36.203,56.385 C31.474,56.385 27.285,54.858 23.869,51.806 C19.361,47.808 16.974,42.575 16.974,36.468 C16.974,30.873 19.125,25.854 23.198,21.93 C26.829,18.368 31.17,16.55 36.116,16.55 C40.84,16.55 44.999,18.15 46.999,21.494 L46.999,5.528 C42,2.56 36.868,0.834 30.923,0.834" id="Shape" fill="#6EAABB"></path>
                <path d="M0.757,31.236 C0.757,47.897 14.299,61.201 30.962,61.201 C37.108,61.201 42.862,59 47.629,56 L48,56 L48,51.806 C44,55.151 40.852,56.385 36.203,56.385 C31.474,56.385 27.285,54.858 23.869,51.806 C19.361,47.808 16.974,42.575 16.974,36.468 C16.974,30.873 19.125,25.854 23.198,21.93 C26.829,18.368 31.17,16.55 36.116,16.55 C40.84,16.55 44.999,18.15 46.999,21.494 L46.999,6" id="Shape" fill="#60919F"></path>
                <path d="M59,43.092 C60.623,39.389 61.166,35.301 61.166,31 C61.166,26.699 60.623,22.611 59,18.908" id="Shape" fill="#60919F"></path>
                <path d="M59,18.908 L59,2.105 L47,4.482 L47,5.528 C52,8.732 56,13.387 59,18.908 Z" id="Shape" fill="#60919F"></path>
                <path d="M59,43.092 C56,48.439 52.819,53 48,56 L59,56 L59,43.092 Z" id="Shape" fill="#60919F"></path>
            </g>
        </g>
    </g>
</svg>